<svg xmlns="http://www.w3.org/2000/svg" width="141" height="141" viewBox="0 0 141 141" fill="none">
<path d="M69.684 0.976562C88.941 0.976562 105.369 7.77633 118.969 21.3759C132.568 34.9754 139.368 51.3492 139.368 70.4974C139.368 89.6455 132.568 106.019 118.969 119.619C105.369 133.218 88.941 140.018 69.684 140.018C50.4271 140.018 33.9988 133.218 20.3993 119.619C6.79977 106.019 0 89.6455 0 70.4974C0 51.3492 6.79977 34.9754 20.3993 21.3759C33.9988 7.77633 50.4271 0.976562 69.684 0.976562ZM69.684 21.8654C63.9178 21.8654 58.9676 23.8782 54.8333 27.9036C50.6991 31.9291 48.6319 36.8249 48.6319 42.5911C48.6319 48.3573 50.6991 53.3076 54.8333 57.4418C58.9676 61.5761 63.9178 63.6432 69.684 63.6432C75.4502 63.6432 80.3461 61.5761 84.3715 57.4418C88.397 53.3076 90.4097 48.3573 90.4097 42.5911C90.4097 36.8249 88.397 31.9291 84.3715 27.9036C80.3461 23.8782 75.4502 21.8654 69.684 21.8654ZM69.684 120.761C78.2789 120.761 86.2211 118.749 93.5104 114.723C100.8 110.698 106.729 105.203 111.299 98.2404C111.299 93.8886 108.742 90.0263 103.628 86.6536C98.515 83.281 92.8576 80.7786 86.6562 79.1467C80.4549 77.5148 74.7975 76.6988 69.684 76.6988C64.5706 76.6988 58.9132 77.5148 52.7118 79.1467C46.5104 80.7786 40.853 83.281 35.7396 86.6536C30.6262 90.0263 27.9606 93.8886 27.7431 98.2404C32.3125 105.203 38.2963 110.698 45.6944 114.723C53.0926 118.749 61.0891 120.761 69.684 120.761Z" fill="#E6E6E6"/>
</svg>